<svg width="118" height="123" viewBox="0 0 118 123" fill="none" xmlns="http://www.w3.org/2000/svg">
<path d="M0 0C0 3.63348 2.94446 6.59409 6.55811 6.59409H110.685C114.298 6.59409 117.243 3.63348 117.243 0H0Z" fill="white"/>
<path d="M47.9907 29.0865L47.6103 31.9093H44.3271V43H40.6235V31.9093H37.1401V29.0865H47.9907Z" fill="white"/>
<path d="M58.2181 29.0865L57.8377 31.9693H52.7328V43H49.0292V29.0865H58.2181Z" fill="white"/>
<path d="M62.505 28.7262C64.2934 28.7262 65.6815 29.3334 66.6691 30.5479C67.6701 31.7491 68.1705 33.5175 68.1705 35.8531C68.1705 38.2821 67.6434 40.1439 66.589 41.4385C65.548 42.7197 64.0999 43.3604 62.2448 43.3604C61.3106 43.3604 60.4964 43.2202 59.8024 42.94C59.1084 42.6597 58.4811 42.2526 57.9206 41.7188L59.5422 39.7168C59.9426 40.0371 60.3229 40.2774 60.6833 40.4375C61.057 40.5843 61.4774 40.6577 61.9445 40.6577C63.506 40.6577 64.3335 39.4899 64.4269 37.1543H59.9426V34.6319H64.4269C64.3468 33.4841 64.1199 32.6566 63.7463 32.1495C63.3726 31.629 62.8521 31.3687 62.1847 31.3687C61.7176 31.3687 61.3039 31.4488 60.9435 31.609C60.5832 31.7691 60.1961 32.0227 59.7824 32.3697L58.0407 30.3477C58.668 29.8005 59.322 29.3935 60.0026 29.1266C60.6966 28.8596 61.5308 28.7262 62.505 28.7262Z" fill="white"/>
<path d="M77.1033 38.7359C76.6762 39.8703 76.189 40.7578 75.6418 41.3985C75.0947 42.0391 74.4407 42.5062 73.6799 42.7998C72.9326 43.0934 71.9783 43.2803 70.8172 43.3604L70.3367 40.918C71.2042 40.8379 71.8715 40.6844 72.3386 40.4575C72.8191 40.2307 73.2195 39.8636 73.5398 39.3565H72.3987L68.1946 29.0865H71.9983L74.6409 37.3145L76.9431 29.0865H80.7068L77.1033 38.7359Z" fill="white"/>
<path d="M9.77023 13.3228C9.77023 16.9562 12.7147 19.9168 16.3283 19.9168V104.429V106.986C16.3283 108.735 17.6667 110.081 19.4066 110.081H30.3814C36.9395 110.081 43.23 112.1 48.5835 115.733L59.2906 123L67.7225 116.675C73.3437 112.369 80.3034 110.081 87.263 110.081H97.8363C99.5762 110.081 100.915 108.735 100.915 106.986V104.429V19.9168H101.718C105.331 19.9168 108.276 16.9562 108.276 13.3228H9.77023ZM63.7073 111.427L59.023 114.926L52.1972 110.216C45.7729 105.775 38.1441 103.487 30.2476 103.487H22.7526V82.7626H30.2476C36.8057 82.7626 43.0961 84.7812 48.4497 88.4147L59.1568 95.6816L67.5887 89.3567C73.2099 85.0503 80.1695 82.7626 87.1292 82.7626H94.2226V103.487H87.1292C78.8311 103.487 70.5331 106.313 63.7073 111.427ZM55.4093 57.3282V85.0503L52.331 82.8971C50.4573 81.5514 48.4497 80.4748 46.3083 79.5328V57.3282H55.4093ZM61.9674 57.3282H70.3993V80.0426L71.2023 79.6674C68.5255 80.8786 66.1164 82.3589 63.7073 84.1083L61.8336 85.454V57.3282H61.9674ZM94.3565 76.1685H87.263C83.7832 76.1685 80.3034 76.7068 76.9574 77.6488V57.4628H82.4448C86.0584 57.4628 89.0029 54.5022 89.0029 50.8687H27.7047C27.7047 54.5022 30.6491 57.4628 34.2628 57.4628H39.7502V77.5142C36.6719 76.7068 33.5936 76.3031 30.3814 76.3031H22.8865V19.9168H94.3565V76.1685Z" fill="white"/>
</svg>
